<?xml version="1.0" encoding="UTF-8" standalone="no"?>
<svg
   xmlns:dc="http://purl.org/dc/elements/1.1/"
   xmlns:cc="http://creativecommons.org/ns#"
   xmlns:rdf="http://www.w3.org/1999/02/22-rdf-syntax-ns#"
   xmlns:svg="http://www.w3.org/2000/svg"
   xmlns="http://www.w3.org/2000/svg"
   xmlns:sodipodi="http://sodipodi.sourceforge.net/DTD/sodipodi-0.dtd"
   xmlns:inkscape="http://www.inkscape.org/namespaces/inkscape"
   sodipodi:docname="logo.svg"
   inkscape:version="1.0 (4035a4fb49, 2020-05-01)"
   id="svg8"
   version="1.1"
   viewBox="0 0 154.909 107.65"
   height="107.65mm"
   width="154.909mm">
  <defs
     id="defs2">
    <inkscape:path-effect
       hide_knots="false"
       only_selected="true"
       apply_with_radius="true"
       apply_no_radius="true"
       use_knot_distance="true"
       flexible="false"
       chamfer_steps="1"
       radius="10"
       mode="F"
       method="auto"
       unit="px"
       satellites_param="F,0,0,1,0,0,0,1 @ F,0,0,1,0,0,0,1 @ F,0,0,1,0,0,0,1 @ F,0,0,1,0,0,0,1 @ F,0,0,1,0,0,0,1 @ F,0,0,1,0,0,0,1 @ F,0,0,1,0,0,0,1 @ F,0,0,1,0,0,0,1 @ F,0,0,1,0,0,0,1 @ F,0,0,1,0,0,0,1 @ F,0,0,1,0,0,0,1 @ F,0,0,1,0,0,0,1 @ F,0,0,1,0,0,0,1 @ F,0,0,1,0,0,0,1 @ F,0,0,1,0,0,0,1 @ F,0,0,1,0,0,0,1 @ F,0,0,1,0,0,0,1 @ F,0,0,1,0,0,0,1 @ F,0,0,1,0,0,0,1 @ F,0,0,1,0,0,0,1 @ F,0,0,1,0,0,0,1 @ F,0,0,1,0,0,0,1 @ F,0,0,1,0,0,0,1 @ F,0,0,1,0,0,0,1 @ F,0,0,1,0,0,0,1 @ F,0,0,1,0,0,0,1 @ F,0,1,1,0,2.6458333,0,1 @ F,0,0,1,0,0,0,1 @ F,0,0,1,0,0,0,1 @ F,0,0,1,0,0,0,1 @ F,0,0,1,0,0,0,1 @ F,0,0,1,0,0,0,1 @ F,0,0,1,0,0,0,1 @ F,0,0,1,0,0,0,1 @ F,0,0,1,0,0,0,1 @ F,0,0,1,0,0,0,1 @ F,0,0,1,0,0,0,1 @ F,0,0,1,0,0,0,1 @ F,0,0,1,0,0,0,1 @ F,0,0,1,0,0,0,1 @ F,0,0,1,0,0,0,1 @ F,0,0,1,0,0,0,1 @ F,0,0,1,0,0,0,1 @ F,0,0,1,0,0,0,1 @ F,0,0,1,0,0,0,1 @ F,0,0,1,0,0,0,1 @ F,0,0,1,0,0,0,1 @ F,0,0,1,0,0,0,1 @ F,0,0,1,0,0,0,1 @ F,0,0,1,0,0,0,1 @ F,0,0,1,0,0,0,1 @ F,0,0,1,0,0,0,1 @ F,0,0,1,0,0,0,1 @ F,0,1,1,0,2.6458333,0,1 @ F,0,0,1,0,0,0,1 @ F,0,0,1,0,0,0,1 @ F,0,0,1,0,0,0,1"
       lpeversion="1"
       is_visible="true"
       id="path-effect310"
       effect="fillet_chamfer" />
  </defs>
  <sodipodi:namedview
     inkscape:guide-bbox="true"
     showguides="true"
     inkscape:snap-intersection-paths="false"
     inkscape:object-nodes="true"
     inkscape:snap-center="true"
     inkscape:window-maximized="0"
     inkscape:window-y="0"
     inkscape:window-x="1366"
     inkscape:window-height="748"
     inkscape:window-width="1366"
     inkscape:snap-smooth-nodes="false"
     inkscape:object-paths="true"
     inkscape:snap-global="true"
     showgrid="false"
     inkscape:document-rotation="0"
     inkscape:current-layer="layer1"
     inkscape:document-units="mm"
     inkscape:cy="172.91783"
     inkscape:cx="554.29935"
     inkscape:zoom="0.70710678"
     inkscape:pageshadow="2"
     inkscape:pageopacity="0.0"
     borderopacity="1.0"
     bordercolor="#666666"
     pagecolor="#ffffff"
     id="base" />
  <metadata
     id="metadata5">
    <rdf:RDF>
      <cc:Work
         rdf:about="">
        <dc:format>image/svg+xml</dc:format>
        <dc:type
           rdf:resource="http://purl.org/dc/dcmitype/StillImage" />
        <dc:title></dc:title>
      </cc:Work>
    </rdf:RDF>
  </metadata>
  <g
     id="layer1"
     inkscape:groupmode="layer"
     inkscape:label="Layer 1">
    <g
       transform="translate(-321.27108,-225.24853)"
       id="g322">
      <path
         d="m 413.59562,304.93332 c 0.10496,0 0.20682,0.008 0.31006,0.0124 l 0.006,-0.0124 z"
         style="font-size:150.349px;line-height:1.25;font-family:Nunito;-inkscape-font-specification:Nunito;fill:#ffff00;stroke-width:3.75872"
         id="path277" />
      <path
         d="m 421.07268,308.16155 0.002,-0.003 c 0.006,-0.0159 0.0137,-0.0312 0.0202,-0.047 z"
         style="font-size:150.349px;line-height:1.25;font-family:Nunito;-inkscape-font-specification:Nunito;fill:#ffff00;stroke-width:3.75872"
         id="path279" />
      <path
         d="m 467.94785,329.71991 -0.13125,0.29199 c 0.0101,-0.0209 0.0216,-0.041 0.0315,-0.062 0.002,-0.004 0.003,-0.007 0.005,-0.0109 0.0336,-0.0719 0.0644,-0.14534 0.0946,-0.21913 z"
         style="font-size:150.349px;line-height:1.25;font-family:Nunito;-inkscape-font-specification:Nunito;fill:#ffff00;stroke-width:3.75872"
         id="path281" />
      <path
         d="m 468.646,332.89853 -42.64597,-5e-4 h -0.0352 c -0.3711,-0.005 -0.74587,-0.0417 -1.12551,-0.11213 -0.39714,-0.0932 -0.76774,-0.21563 -1.11156,-0.36743 -0.34383,-0.15171 -0.66135,-0.33321 -0.95188,-0.54364 -0.29054,-0.21044 -0.55443,-0.45021 -0.79168,-0.71932 -0.23726,-0.26908 -0.44749,-0.56724 -0.63149,-0.89506 -0.044,-0.0784 -0.0836,-0.15928 -0.12299,-0.24029 l -0.13487,-0.30022 c -0.006,-0.0158 -0.0138,-0.0311 -0.0202,-0.0471 l -0.002,-0.003 -1.86862,-4.15531 c -0.0593,-0.14467 -0.12294,-0.2894 -0.19534,-0.43408 l -5.54436,-12.32947 c -0.20048,-0.40093 -0.35088,-0.81426 -0.45114,-1.24024 -0.10026,-0.42598 -0.15038,-0.86463 -0.15038,-1.31566 0,-0.3759 0.0375,-0.73605 0.11266,-1.08056 0.0752,-0.34454 0.18763,-0.67331 0.33796,-0.9865 0.15033,-0.31322 0.33828,-0.61058 0.56379,-0.89247 0.22551,-0.28186 0.48892,-0.54832 0.78962,-0.79891 0.27564,-0.25058 0.56685,-0.46987 0.87385,-0.65786 0.30698,-0.18796 0.62957,-0.34441 0.96789,-0.46971 0.33832,-0.12534 0.69232,-0.2195 1.06195,-0.28218 0.36931,-0.0626 0.75442,-0.094 1.15497,-0.094 h 1.67122 l 42.64546,5e-4 h 0.0351 c 0.3711,0.005 0.74587,0.0418 1.12551,0.11216 0.39714,0.0932 0.76774,0.21561 1.11156,0.3674 0.34383,0.15174 0.66135,0.33321 0.95188,0.54364 0.29054,0.21045 0.55443,0.45024 0.79168,0.71935 0.23726,0.26908 0.44749,0.56724 0.63149,0.89503 0.0455,0.0811 0.0865,0.1647 0.12712,0.24855 l 0.13126,0.29199 c 0.006,0.0158 0.0138,0.0311 0.0202,0.047 l 0.002,0.003 7.60833,16.91886 c 0.40095,0.80185 0.6015,1.65386 0.6015,2.55593 0,1.50352 -0.60121,2.75611 -1.80401,3.75843 -1.10233,1.00211 -2.45541,1.50355 -4.05868,1.50376 -3.5e-4,0 -6.7e-4,0 -10e-4,0 z"
         style="font-size:150.349px;line-height:1.25;font-family:Nunito;-inkscape-font-specification:Nunito;fill:#1a1a1a;stroke-width:3.75872"
         id="path283" />
      <path
         d="m 383.54474,332.88613 -0.006,0.0124 h 0.31575 c -0.10496,0 -0.20682,-0.008 -0.31006,-0.0124 z"
         style="font-size:150.349px;line-height:1.25;font-family:Nunito;-inkscape-font-specification:Nunito;fill:#0000ff;stroke-width:3.75872"
         id="path285" />
      <path
         d="m 376.37877,329.6698 -0.002,0.003 c -0.007,0.0187 -0.0161,0.0367 -0.0238,0.0553 z"
         style="font-size:150.349px;line-height:1.25;font-family:Nunito;-inkscape-font-specification:Nunito;fill:#0000ff;stroke-width:3.75872"
         id="path287" />
      <path
         d="m 329.63744,307.81326 c -0.0112,0.023 -0.0238,0.0451 -0.0346,0.0682 -0.002,0.004 -0.003,0.007 -0.005,0.0108 -0.0365,0.0782 -0.0703,0.1578 -0.10283,0.23823 z"
         style="font-size:150.349px;line-height:1.25;font-family:Nunito;-inkscape-font-specification:Nunito;fill:#0000ff;stroke-width:3.75872"
         id="path289" />
      <path
         d="m 329.63744,307.81326 -0.14263,0.31728 c -0.004,0.009 -0.008,0.0185 -0.0119,0.0279 l -0.002,0.003 -7.60832,16.91886 c -0.40093,0.80185 -0.60151,1.65384 -0.60151,2.55591 0,1.50352 0.60123,2.75611 1.80402,3.75843 1.10256,1.00235 2.45599,1.50378 4.0597,1.50378 h 1.67019 42.64494 l 0.0356,-5e-4 c 0.3711,-0.005 0.74587,-0.0418 1.12551,-0.11216 0.39714,-0.0932 0.76775,-0.2156 1.11156,-0.3674 0.34384,-0.15171 0.66135,-0.33321 0.95189,-0.54364 0.29053,-0.21044 0.55443,-0.45024 0.79168,-0.71934 0.23726,-0.26909 0.44748,-0.56724 0.63149,-0.89504 0.046,-0.0819 0.0872,-0.16642 0.12815,-0.25114 l 0.12661,-0.28112 c 0.008,-0.0186 0.0163,-0.0366 0.0238,-0.0553 l 0.002,-0.003 1.86758,-4.15221 c 0.0596,-0.14568 0.12352,-0.2915 0.19637,-0.43718 l 5.54437,-12.32947 c 0.20046,-0.40093 0.35087,-0.81426 0.45113,-1.24024 0.10026,-0.426 0.15038,-0.86466 0.15038,-1.31569 0,-0.37587 -0.0375,-0.73602 -0.11265,-1.08056 -0.0752,-0.34451 -0.18816,-0.67331 -0.33848,-0.9865 -0.15033,-0.31319 -0.33828,-0.61058 -0.56379,-0.89244 -0.22551,-0.28188 -0.4884,-0.54835 -0.7891,-0.79893 -0.27564,-0.25059 -0.56686,-0.46988 -0.87385,-0.65784 -0.30699,-0.18796 -0.6301,-0.34441 -0.96842,-0.46974 -0.33832,-0.12531 -0.69231,-0.21947 -1.06195,-0.28215 -0.36963,-0.0627 -0.75455,-0.094 -1.15548,-0.094 h -44.31564 l -0.0357,5e-4 c -0.3711,0.005 -0.74587,0.0418 -1.12551,0.11213 -0.39714,0.0932 -0.76774,0.21564 -1.11156,0.36743 -0.34383,0.15171 -0.66135,0.33321 -0.95188,0.54364 -0.29054,0.21045 -0.55444,0.45021 -0.79168,0.71932 -0.23726,0.26908 -0.44749,0.56727 -0.63149,0.89506 -0.0444,0.0791 -0.0843,0.16063 -0.12402,0.24236 z"
         style="font-size:150.349px;line-height:1.25;font-family:Nunito;-inkscape-font-specification:Nunito;fill:#1a1a1a;stroke-width:3.75872"
         id="path291" />
      <path
         d="m 338.91697,291.56205 -0.0227,-0.0501 c -0.004,-0.009 -0.008,-0.0185 -0.0119,-0.0279 l -0.002,-0.003 -0.0119,-0.0264 c 0.01,0.0216 0.0129,0.0462 0.0233,0.0677 0.007,0.014 0.0184,0.0258 0.0253,0.0398 z"
         style="font-size:150.349px;line-height:1.25;font-family:Nunito;-inkscape-font-specification:Nunito;fill:#000000;stroke-width:3.75872"
         id="path293" />
      <path
         sodipodi:nodetypes="sscccssscccccscssscccsscscccscssscccssscssssssscccssccccs"
         d="m 371.48811,225.24878 c -1.40326,0 -2.70653,0.35051 -3.90932,1.05213 -1.20279,0.70165 -2.10489,1.75419 -2.7063,3.15743 l -26.00719,57.8342 c -5.3e-4,0 -5.3e-4,0.003 -10e-4,0.003 -0.1133,0.27575 -0.20577,0.55681 -0.27337,0.84386 -0.10027,0.42603 -0.15038,0.86466 -0.15038,1.31569 0,0.37587 0.0375,0.73605 0.11266,1.08056 0.07,0.32086 0.17999,0.62511 0.31522,0.91879 l 0.0119,0.0265 0.002,0.003 c 0.004,0.009 0.008,0.0188 0.0119,0.0279 l 0.0227,0.0501 c 0.14682,0.29785 0.32303,0.58338 0.53847,0.85268 0.22551,0.28188 0.4884,0.54832 0.78909,0.79891 0.26417,0.24016 0.54293,0.45137 0.83613,0.63354 0.29321,0.18217 0.60087,0.33547 0.92294,0.45993 0.32205,0.12446 0.65849,0.21971 1.00924,0.2868 0.35074,0.0671 0.71578,0.10576 1.09502,0.11576 h 44.01592 c 0.40093,0 0.78586,-0.0315 1.15549,-0.0941 0.36963,-0.0627 0.72363,-0.15685 1.06195,-0.28215 0.33832,-0.12533 0.66142,-0.28178 0.96841,-0.46974 0.30699,-0.18796 0.59821,-0.40725 0.87385,-0.65784 0.3007,-0.25058 0.5636,-0.51702 0.7891,-0.79891 0.22551,-0.28186 0.41346,-0.57927 0.56379,-0.89246 l 4.10368,-9.12526 a 1.1898444,1.1898444 4.1303881e-5 0 1 2.17033,0 l 4.10367,9.12526 c 0.15032,0.31321 0.33827,0.61055 0.56379,0.89246 0.22551,0.28186 0.48891,0.54833 0.78961,0.79891 0.27564,0.25059 0.56686,0.46985 0.87385,0.65784 0.30698,0.18796 0.62958,0.34443 0.9679,0.46974 0.33832,0.12533 0.69232,0.21947 1.06195,0.28215 0.36931,0.0626 0.75442,0.0941 1.15497,0.0941 h 44.01643 c 0.002,-5e-5 0.003,0 0.005,0 0.37752,-0.0103 0.74111,-0.0485 1.09037,-0.11523 0.35074,-0.0671 0.68717,-0.16235 1.00924,-0.28681 0.32206,-0.12446 0.62973,-0.27775 0.92294,-0.45992 0.2932,-0.18217 0.57198,-0.39338 0.83613,-0.63355 0.3007,-0.25058 0.5636,-0.51702 0.7891,-0.7989 0.21663,-0.27078 0.39431,-0.55767 0.54157,-0.85733 0.006,-0.0122 0.0163,-0.0228 0.0222,-0.0351 0.01,-0.0201 0.0124,-0.0429 0.0217,-0.063 0.13624,-0.29504 0.24642,-0.60098 0.31677,-0.92345 0.0752,-0.34451 0.11266,-0.70469 0.11266,-1.08056 0,-0.45103 -0.0501,-0.88966 -0.15038,-1.31569 -0.10001,-0.42476 -0.25038,-0.83712 -0.4501,-1.23711 l -25.83152,-57.44482 c -0.60139,-1.30302 -1.5035,-2.30543 -2.70629,-3.00705 -1.20279,-0.80187 -2.5557,-1.20251 -4.05919,-1.20251 -1.40326,0 -2.70653,0.35051 -3.90932,1.05213 -1.20279,0.70165 -2.1049,1.75419 -2.70629,3.15743 l -19.3865,43.11128 a 1.1897914,1.1897914 0 0 1 -2.17024,0 l -19.3865,-43.11128 c -0.60139,-1.30302 -1.5035,-2.30543 -2.7063,-3.00705 -1.20279,-0.80187 -2.55569,-1.20251 -4.05918,-1.20251 z"
         style="font-size:150.349px;line-height:1.25;font-family:Nunito;-inkscape-font-specification:Nunito;fill:#1a1a1a;stroke-width:3.75872"
         id="path295"
         inkscape:path-effect="#path-effect310"
         inkscape:original-d="m 371.48811,225.24878 c -1.40326,0 -2.70653,0.35051 -3.90932,1.05213 -1.20279,0.70165 -2.10489,1.75419 -2.7063,3.15743 l -26.00719,57.8342 c -5.3e-4,0 -5.3e-4,0.003 -10e-4,0.003 -0.1133,0.27575 -0.20577,0.55681 -0.27337,0.84386 -0.10027,0.42603 -0.15038,0.86466 -0.15038,1.31569 0,0.37587 0.0375,0.73605 0.11266,1.08056 0.07,0.32086 0.17999,0.62511 0.31522,0.91879 l 0.0119,0.0265 0.002,0.003 c 0.004,0.009 0.008,0.0188 0.0119,0.0279 l 0.0227,0.0501 c 0.14682,0.29785 0.32303,0.58338 0.53847,0.85268 0.22551,0.28188 0.4884,0.54832 0.78909,0.79891 0.26417,0.24016 0.54293,0.45137 0.83613,0.63354 0.29321,0.18217 0.60087,0.33547 0.92294,0.45993 0.32205,0.12446 0.65849,0.21971 1.00924,0.2868 0.35074,0.0671 0.71578,0.10576 1.09502,0.11576 h 44.01592 c 0.40093,0 0.78586,-0.0315 1.15549,-0.0941 0.36963,-0.0627 0.72363,-0.15685 1.06195,-0.28215 0.33832,-0.12533 0.66142,-0.28178 0.96841,-0.46974 0.30699,-0.18796 0.59821,-0.40725 0.87385,-0.65784 0.3007,-0.25058 0.5636,-0.51702 0.7891,-0.79891 0.22551,-0.28186 0.41346,-0.57927 0.56379,-0.89246 l 5.18885,-11.53832 5.18883,11.53832 c 0.15032,0.31321 0.33827,0.61055 0.56379,0.89246 0.22551,0.28186 0.48891,0.54833 0.78961,0.79891 0.27564,0.25059 0.56686,0.46985 0.87385,0.65784 0.30698,0.18796 0.62958,0.34443 0.9679,0.46974 0.33832,0.12533 0.69232,0.21947 1.06195,0.28215 0.36931,0.0626 0.75442,0.0941 1.15497,0.0941 h 44.01643 c 0.002,-5e-5 0.003,0 0.005,0 0.37752,-0.0103 0.74111,-0.0485 1.09037,-0.11523 0.35074,-0.0671 0.68717,-0.16235 1.00924,-0.28681 0.32206,-0.12446 0.62973,-0.27775 0.92294,-0.45992 0.2932,-0.18217 0.57198,-0.39338 0.83613,-0.63355 0.3007,-0.25058 0.5636,-0.51702 0.7891,-0.7989 0.21663,-0.27078 0.39431,-0.55767 0.54157,-0.85733 0.006,-0.0122 0.0163,-0.0228 0.0222,-0.0351 0.01,-0.0201 0.0124,-0.0429 0.0217,-0.063 0.13624,-0.29504 0.24642,-0.60098 0.31677,-0.92345 0.0752,-0.34451 0.11266,-0.70469 0.11266,-1.08056 0,-0.45103 -0.0501,-0.88966 -0.15038,-1.31569 -0.10001,-0.42476 -0.25038,-0.83712 -0.4501,-1.23711 l -25.83152,-57.44482 c -0.60139,-1.30302 -1.5035,-2.30543 -2.70629,-3.00705 -1.20279,-0.80187 -2.5557,-1.20251 -4.05919,-1.20251 -1.40326,0 -2.70653,0.35051 -3.90932,1.05213 -1.20279,0.70165 -2.1049,1.75419 -2.70629,3.15743 l -20.47162,45.52436 -20.47162,-45.52436 c -0.60139,-1.30302 -1.5035,-2.30543 -2.7063,-3.00705 -1.20279,-0.80187 -2.55569,-1.20251 -4.05918,-1.20251 z" />
    </g>
  </g>
</svg>
